<svg xmlns="http://www.w3.org/2000/svg" aria-hidden="true" style="position:absolute;width:0;height:0;overflow:hidden">
    <defs>
        <symbol id="icon-arrow-up" viewBox="0 0 32 32">
            <path fill="#fff" opacity="0.9" d="M8.136 22.641c-1.432 0-2.197-1.687-1.253-2.764l7.361-8.413c0.219-0.25 0.489-0.451 0.792-0.588s0.632-0.209 0.964-0.209c0.333 0 0.661 0.071 0.964 0.209s0.573 0.338 0.792 0.588l7.363 8.413c0.943 1.079 0.177 2.764-1.253 2.764h-15.729z"></path>
        </symbol>
        <symbol id="icon-arrow-down" viewBox="0 0 32 32">
            <path fill="#fff" opacity="0.9" d="M23.864 9.359c1.432 0 2.197 1.687 1.253 2.764l-7.361 8.413c-0.219 0.25-0.489 0.451-0.792 0.588s-0.632 0.209-0.964 0.209c-0.333 0-0.661-0.071-0.964-0.209s-0.573-0.338-0.792-0.588l-7.363-8.413c-0.943-1.079-0.177-2.764 1.253-2.764h15.729z"></path>
        </symbol>
    </defs>
</svg>